# xmcd
#
# Track frame offsets:
# 188
# 21513
# 39215
#
# Disc length: 883 seconds
#
#
# Revision: 5
# Processed by: cddbd v1.5.1PL0 Copyright (c) Steve Scherf et al.
# Submitted via: FreeRIP 2.942 
#
DISCID=1b037103
DTITLE=Laid Back - Bakerman (Maxi)
DYEAR=1989
DGENRE=Pop
TTITLE0=Bakerman
TTITLE1=I Walk Proud
TTITLE2=Bakerman - Extended Remix
EXTD=
EXTT0=
EXTT1=
EXTT2=Extended Remix
PLAYORDER=
